<?xml version="1.0" encoding="utf-8"?>
<!-- Generator: Adobe Illustrator 16.0.0, SVG Export Plug-In . SVG Version: 6.00 Build 0)  -->
<!DOCTYPE svg PUBLIC "-//W3C//DTD SVG 1.1//EN" "http://www.w3.org/Graphics/SVG/1.1/DTD/svg11.dtd">
<svg version="1.1" id="Layer_1" xmlns="http://www.w3.org/2000/svg" xmlns:xlink="http://www.w3.org/1999/xlink" x="0px" y="0px"
	 width="1158.115px" height="194.818px" viewBox="0 0 1158.115 194.818" enable-background="new 0 0 1158.115 194.818"
	 xml:space="preserve">
<g>
	<path fill="#FFFFFF" d="M101.616,47.988c-3.45-4.761-8.129-8.66-14.042-11.701c-5.911-3.036-12.563-4.557-19.956-4.557
		c-3.941,0-7.926,0.534-11.948,1.602c-4.025,1.068-7.68,2.794-10.96,5.174c-3.291,2.381-5.957,5.338-8.008,8.868
		c-2.058,3.533-3.08,7.761-3.08,12.688c0,4.766,0.943,8.746,2.834,11.948c1.885,3.203,4.432,5.913,7.637,8.13
		c3.201,2.217,6.977,4.106,11.331,5.666c4.351,1.563,8.993,3.165,13.921,4.805c5.912,1.811,11.904,3.86,17.984,6.159
		c6.074,2.301,11.579,5.339,16.508,9.114c4.926,3.782,8.948,8.5,12.068,14.165c3.117,5.668,4.682,12.854,4.682,21.557
		c0,9.037-1.687,16.877-5.05,23.529c-3.368,6.65-7.845,12.155-13.427,16.504c-5.587,4.354-12.035,7.6-19.341,9.731
		c-7.309,2.134-14.823,3.201-22.54,3.201c-11.008,0-21.641-2.137-31.904-6.403c-10.266-4.269-18.766-10.593-25.497-18.971
		l18.968-16.014c4.104,6.079,9.609,11.007,16.508,14.782c6.896,3.779,14.369,5.666,22.418,5.666c4.102,0,8.211-0.573,12.319-1.723
		c4.101-1.147,7.84-2.957,11.208-5.421c3.363-2.463,6.117-5.543,8.252-9.237c2.134-3.695,3.203-8.167,3.203-13.428
		c0-5.254-1.107-9.646-3.324-13.179c-2.22-3.531-5.217-6.529-8.994-8.993c-3.779-2.464-8.171-4.557-13.179-6.281
		c-5.013-1.726-10.31-3.489-15.892-5.299c-5.584-1.638-11.086-3.651-16.506-6.036c-5.418-2.376-10.268-5.418-14.533-9.114
		c-4.274-3.695-7.725-8.252-10.349-13.673c-2.63-5.419-3.94-12.152-3.94-20.201c0-8.704,1.76-16.176,5.295-22.419
		c3.529-6.239,8.129-11.413,13.799-15.521c5.664-4.104,12.069-7.103,19.213-8.993c7.145-1.886,14.327-2.832,21.559-2.832
		c10.182,0,19.708,1.81,28.576,5.42c8.869,3.614,16.014,8.46,21.434,14.534L101.616,47.988z"/>
	<path fill="#FFFFFF" d="M177.493,124.115h0.737l49.024-50.75h31.042l-54.69,52.968l59.37,63.805h-32.027l-52.719-60.603h-0.737
		v60.603h-23.159V3.89h23.159V124.115L177.493,124.115z"/>
	<rect x="283.914" y="73.365" fill="#FFFFFF" width="23.159" height="116.772"/>
	<path fill="#FFFFFF" d="M371.126,190.137h-23.159V3.89h23.159V190.137z"/>
	<path fill="#FFFFFF" d="M435.175,190.137h-23.157V3.89h23.157V190.137z"/>
	<path fill="#FFFFFF" d="M538.646,102.928c-2.63-4.271-6.325-7.761-11.087-10.471c-4.766-2.71-10.103-4.064-16.013-4.064
		c-2.63,0-5.26,0.289-7.885,0.861c-2.631,0.577-4.971,1.478-7.022,2.71c-2.056,1.231-3.695,2.794-4.928,4.68
		c-1.23,1.892-1.847,4.232-1.847,7.022c0,4.927,2.218,8.584,6.65,10.963c4.436,2.382,11.086,4.557,19.957,6.527
		c5.581,1.315,10.753,2.875,15.521,4.683c4.761,1.809,8.906,4.063,12.442,6.775c3.528,2.707,6.279,5.953,8.25,9.73
		c1.973,3.78,2.956,8.213,2.956,13.302c0,6.897-1.315,12.729-3.94,17.493c-2.628,4.764-6.119,8.663-10.471,11.702
		c-4.354,3.041-9.322,5.216-14.904,6.527c-5.584,1.313-11.332,1.971-17.244,1.971c-8.869,0-17.533-1.723-25.992-5.173
		s-15.481-8.705-21.063-15.769l16.507-14.041c3.118,4.602,7.43,8.459,12.934,11.577c5.5,3.123,11.535,4.683,18.105,4.683
		c2.959,0,5.793-0.284,8.501-0.862c2.712-0.574,5.175-1.519,7.39-2.834c2.219-1.313,3.982-3.036,5.299-5.172
		c1.312-2.134,1.972-4.844,1.972-8.132c0-5.417-2.588-9.44-7.763-12.07c-5.174-2.625-12.77-5.088-22.788-7.392
		c-3.939-0.985-7.926-2.175-11.945-3.572c-4.029-1.394-7.683-3.324-10.965-5.789c-3.287-2.463-5.954-5.542-8.009-9.238
		c-2.054-3.695-3.077-8.254-3.077-13.675c0-6.238,1.27-11.616,3.817-16.136c2.545-4.517,5.869-8.211,9.979-11.086
		c4.103-2.872,8.783-5.009,14.039-6.406c5.255-1.394,10.675-2.094,16.263-2.094c8.375,0,16.463,1.644,24.264,4.927
		c7.801,3.288,13.838,8.05,18.109,14.29L538.646,102.928z"/>
	<path fill="#FFFFFF" d="M831.813,100.709c-1.811-0.493-3.573-0.82-5.3-0.986c-1.725-0.161-3.409-0.245-5.049-0.245
		c-5.422,0-9.977,0.986-13.673,2.949c-3.696,1.966-6.651,4.34-8.87,7.124c-2.216,2.789-3.817,5.818-4.805,9.092
		c-0.984,3.277-1.479,6.141-1.479,8.598v62.897h-40.401V67.598h38.927v17.738h0.491c3.117-6.283,7.553-11.41,13.304-15.378
		c5.748-3.968,12.399-5.956,19.953-5.956c1.642,0,3.243,0.085,4.806,0.247c1.56,0.166,2.834,0.412,3.817,0.74L831.813,100.709z"/>
	<path fill="#FFFFFF" d="M844.13,84.204c7.226-6.898,15.644-12.071,25.252-15.521c9.607-3.449,19.419-5.173,29.438-5.173
		c10.348,0,19.091,1.274,26.232,3.818c7.146,2.549,12.936,6.489,17.371,11.825c4.436,5.34,7.675,12.072,9.729,20.202
		c2.053,8.129,3.08,17.779,3.08,28.947v61.835H918.28v-13.056h-0.738c-3.121,5.093-7.845,9.034-14.164,11.824
		c-6.326,2.791-13.18,4.188-20.569,4.188c-4.928,0-10.021-0.66-15.273-1.972c-5.262-1.313-10.063-3.45-14.412-6.406
		c-4.354-2.954-7.928-6.897-10.718-11.825c-2.794-4.927-4.188-11.001-4.188-18.229c0-8.871,2.423-16.014,7.269-21.435
		c4.844-5.42,11.086-9.608,18.725-12.565c7.636-2.954,16.136-4.928,25.498-5.911c9.359-0.986,18.478-1.48,27.343-1.48v-1.97
		c0-6.075-2.138-10.55-6.402-13.427c-4.273-2.871-9.525-4.312-15.769-4.312c-5.751,0-11.293,1.231-16.629,3.695
		c-5.338,2.462-9.896,5.419-13.672,8.869L844.13,84.204z M918.28,136.677h-5.17c-4.437,0-8.912,0.209-13.429,0.616
		c-4.52,0.414-8.541,1.192-12.067,2.341c-3.536,1.152-6.449,2.834-8.75,5.05c-2.299,2.218-3.447,5.136-3.447,8.747
		c0,2.3,0.531,4.273,1.6,5.911c1.068,1.644,2.425,2.957,4.066,3.943c1.641,0.983,3.529,1.685,5.666,2.093
		c2.134,0.411,4.188,0.616,6.159,0.616c8.212,0,14.492-2.257,18.847-6.774c4.349-4.516,6.525-10.632,6.525-18.354V136.677z"/>
	<path fill="#FFFFFF" d="M1061.413,33.7c-1.478-0.494-3.202-0.901-5.172-1.232c-1.972-0.327-3.941-0.493-5.914-0.493
		c-3.779,0-6.816,0.66-9.113,1.973c-2.302,1.315-4.108,3.079-5.42,5.296c-1.316,2.217-2.219,4.723-2.713,7.513
		c-0.489,2.796-0.738,5.586-0.738,8.377v12.318h27.349v30.055h-27.349v92.63h-40.399v-92.63h-22.422V67.452h22.422V55.626
		c0-7.552,0.815-14.74,2.464-21.558c1.638-6.813,4.472-12.81,8.497-17.983c4.022-5.173,9.442-9.276,16.26-12.317
		c6.813-3.038,15.313-4.558,25.498-4.558c3.449,0,6.854,0.208,10.225,0.616c3.365,0.41,6.443,1.026,9.239,1.847L1061.413,33.7z"/>
	<path fill="#FFFFFF" d="M1126.462,97.507v46.989c0,5.77,1.109,10.098,3.326,12.983c2.217,2.888,6.197,4.326,11.949,4.326
		c1.97,0,4.063-0.161,6.28-0.493c2.22-0.327,4.065-0.817,5.543-1.477l0.494,29.563c-2.795,0.987-6.324,1.849-10.594,2.585
		c-4.271,0.739-8.543,1.11-12.812,1.11c-8.216,0-15.113-1.033-20.694-3.087c-5.585-2.057-10.063-5.021-13.428-8.893
		c-3.367-3.868-5.789-8.48-7.267-13.831c-1.479-5.352-2.217-11.323-2.217-17.907V97.507h-19.709V67.452h19.463V35.178h39.662v32.274
		h28.825v30.055H1126.462L1126.462,97.507z"/>
	<g>
		<path fill="#FFFFFF" d="M322.332,37.263h0.878v-0.878V26.134v-0.878h-0.878h-6.978c-0.408-1.405-0.967-2.762-1.667-4.053
			l4.925-4.926l0.623-0.62l-0.623-0.622l-7.25-7.248l-0.619-0.623l-0.621,0.623l-4.944,4.942c-1.222-0.656-2.504-1.186-3.827-1.585
			V4.276V3.397h-0.878h-10.249h-0.881v0.879v6.869c-1.254,0.379-2.473,0.875-3.635,1.483l-4.841-4.841l-0.62-0.623l-0.622,0.623
			l-7.248,7.248l-0.62,0.622l0.62,0.62l4.738,4.736c-0.702,1.258-1.267,2.582-1.688,3.948h-6.767h-0.881v0.878v10.251v0.879h0.881
			h6.681c0.43,1.473,1.025,2.895,1.774,4.241l-4.738,4.737l-0.62,0.619l0.62,0.621l7.248,7.249l0.622,0.621l0.62-0.621l4.841-4.84
			c1.248,0.654,2.566,1.18,3.93,1.566v6.785v0.879h0.878h10.251h0.877v-0.879v-6.96c1.217-0.387,2.404-0.887,3.534-1.493
			l4.944,4.941l0.621,0.621l0.619-0.621l7.25-7.249l0.623-0.621l-0.623-0.619l-4.925-4.927c0.651-1.204,1.183-2.463,1.583-3.759
			H322.332L322.332,37.263z M307.796,31.113c0,6.863-5.584,12.447-12.447,12.447c-6.865,0-12.447-5.584-12.447-12.447
			c0-6.862,5.582-12.446,12.447-12.446C302.212,18.666,307.796,24.25,307.796,31.113z"/>
	</g>
	<g>
		<circle fill="#FFFFFF" cx="668.458" cy="102.926" r="14.371"/>
		<path fill="#FFFFFF" d="M716.057,146.781l-10.567,10.567l-1.447,1.453l-1.449-1.453l-7.715-7.712
			c-0.893,0.546-1.804,1.076-2.753,1.576c-2.876,1.514-5.986,2.661-9.313,3.478v10.854v2.052h-2.054h-23.914h-2.055v-2.052v-11.659
			c-1.55-0.484-3.066-1.044-4.547-1.685c-2.486-1.074-4.819-2.33-7.017-3.748l-8.896,8.897l-1.45,1.453l-1.449-1.453l-16.913-16.911
			l-1.45-1.445l1.45-1.453l10.809-10.806c-0.33-0.777-0.647-1.568-0.949-2.375c-0.082-0.22-0.152-0.446-0.231-0.667
			c-1.087-2.295-1.999-4.664-2.71-7.098h-15.597h-2.052v-2.052V90.627v-2.051h2.052h15.791c0.633-2.048,1.42-4.049,2.323-6.002
			c0.142-0.401,0.273-0.808,0.424-1.204c0.293-0.771,0.602-1.529,0.923-2.277l-10.783-10.781l-1.449-1.452l1.449-1.449l16.914-16.91
			l1.449-1.451l1.45,1.451l8.85,8.846c2.323-1.539,4.794-2.9,7.433-4.061c1.142-0.502,2.313-0.942,3.496-1.352V40.306v-2.048h2.052
			h23.916h2.05v2.048v10.175c2.871,0.647,5.712,1.531,8.52,2.681c1.713,0.703,3.33,1.513,4.866,2.416l7.081-7.078l1.449-1.451
			l1.447,1.451l8.705,8.705l20.551-20.548c-7.39-8.377-17.041-14.739-28.947-19.094c-11.912-4.349-24.02-6.528-36.338-6.528
			c-13.306,0-25.707,2.136-37.202,6.404c-11.497,4.273-21.519,10.391-30.056,18.355c-8.541,7.968-15.236,17.614-20.077,28.947
			c-4.847,11.333-7.269,23.981-7.269,37.938c0,13.634,2.38,26.115,7.144,37.447c4.763,11.332,11.333,21.063,19.708,29.192
			c8.377,8.133,18.271,14.413,29.688,18.848c11.413,4.433,23.854,6.651,37.323,6.651c14.782,0,27.84-2.586,39.171-7.761
			c11.334-5.172,20.854-12.195,28.578-21.064L716.057,146.781z"/>
	</g>
</g>
</svg>
