<?xml version="1.0" encoding="utf-8"?>
<!-- Generator: Adobe Illustrator 16.0.0, SVG Export Plug-In . SVG Version: 6.00 Build 0)  -->
<!DOCTYPE svg PUBLIC "-//W3C//DTD SVG 1.1//EN" "http://www.w3.org/Graphics/SVG/1.1/DTD/svg11.dtd">
<svg version="1.1" id="Layer_1" xmlns="http://www.w3.org/2000/svg" xmlns:xlink="http://www.w3.org/1999/xlink" x="0px" y="0px"
	 width="200px" height="200px" viewBox="0 0 200 200" enable-background="new 0 0 200 200" xml:space="preserve">
<g>
	<path fill="#FFFFFF" d="M75.008,0H0v75.008h75.008V0z M62.496,62.496H12.511V12.512h49.985V62.496z M62.496,62.496"/>
	<rect x="25.03" y="25.03" fill="#FFFFFF" width="24.97" height="24.962"/>
	<path fill="#FFFFFF" d="M0,200h75.008v-75.008H0V200z M12.511,137.504h49.985v49.984H12.511V137.504z M12.511,137.504"/>
	<rect x="25.03" y="150.016" fill="#FFFFFF" width="24.97" height="24.962"/>
	<path fill="#FFFFFF" d="M124.992,0v75.008H200V0H124.992z M187.488,62.496h-49.984V12.512h49.984V62.496z M187.488,62.496"/>
	<rect x="150.016" y="25.03" fill="#FFFFFF" width="24.961" height="24.962"/>
	<path fill="#FFFFFF" d="M25.03,87.519H0v24.962h37.466v-12.52H25.03V87.519z M25.03,87.519"/>
	<rect x="87.526" y="112.481" fill="#FFFFFF" width="24.954" height="25.022"/>
	<rect x="37.466" y="87.519" fill="#FFFFFF" width="25.03" height="12.458"/>
	<path fill="#FFFFFF" d="M112.48,150.016H87.526v12.45h12.436v12.512h12.519v-12.512V150.016z M112.48,150.016"/>
	<path fill="#FFFFFF" d="M75.008,87.519v12.443H62.496v12.52h25.03V87.519H75.008z M75.008,87.519"/>
	<rect x="99.962" y="49.977" fill="#FFFFFF" width="12.519" height="25.031"/>
	<path fill="#FFFFFF" d="M112.48,99.962v12.52h25.023V87.519H99.962v12.443H112.48z M112.48,99.962"/>
	<rect x="87.526" y="75.008" fill="#FFFFFF" width="12.451" height="12.511"/>
	<rect x="112.48" y="174.978" fill="#FFFFFF" width="25.023" height="25.022"/>
	<rect x="87.526" y="174.978" fill="#FFFFFF" width="12.451" height="25.022"/>
	<rect x="112.48" y="137.504" fill="#FFFFFF" width="12.512" height="12.512"/>
	<path fill="#FFFFFF" d="M112.48,37.466V12.512H99.962V0H87.526v49.977h12.436V37.466H112.48z M112.48,37.466"/>
	<rect x="150.016" y="174.978" fill="#FFFFFF" width="12.45" height="25.022"/>
	<rect x="150.016" y="150.016" fill="#FFFFFF" width="24.961" height="12.45"/>
	<rect x="137.504" y="162.466" fill="#FFFFFF" width="12.512" height="12.512"/>
	<rect x="124.992" y="150.016" fill="#FFFFFF" width="12.512" height="12.45"/>
	<path fill="#FFFFFF" d="M174.977,124.992v12.512h12.512v12.512H200v-25.023h-12.512H174.977z M174.977,124.992"/>
	<path fill="#FFFFFF" d="M187.488,162.466h-12.512V200H200v-25.022h-12.512V162.466z M187.488,162.466"/>
	<path fill="#FFFFFF" d="M124.992,124.992v12.512h37.474v-25.022h-24.962v12.511H124.992z M124.992,124.992"/>
	<path fill="#FFFFFF" d="M150.016,87.519v12.443h24.961v12.52H200V87.519h-25.023H150.016z M150.016,87.519"/>
</g>
</svg>
